<?xml version="1.0" encoding="iso-8859-1"?>
<!-- Generator: Adobe Illustrator 19.0.0, SVG Export Plug-In . SVG Version: 6.00 Build 0)  -->
<svg version="1.1" id="Layer_1" xmlns="http://www.w3.org/2000/svg" xmlns:xlink="http://www.w3.org/1999/xlink" x="0px" y="0px"
	 viewBox="0 0 512 512" style="enable-background:new 0 0 512 512;" xml:space="preserve">
<g>
	<g>
		<path d="M394.778,373.043l-25.532-44.28c-5.615,6.519-13.167,10.871-21.794,12.476l25.574,44.339
			c4.599,7.953,5.504,15.172,2.526,20.326c-2.978,5.154-9.677,8.004-18.876,8.004H272.23l6.75-6.724
			c2.347-2.372,3.678-5.521,3.678-8.875c0-3.354-1.323-6.502-3.678-8.875c-4.753-4.702-12.996-4.702-17.749,0l-28.177,28.151
			c-4.872,4.898-4.872,12.851,0,17.749l28.177,28.177c2.372,2.347,5.521,3.652,8.875,3.652c3.354,0,6.502-1.297,8.875-3.652
			c4.898-4.898,4.898-12.877,0-17.775l-6.75-6.724h84.446c18.253,0,33.05-7.475,40.602-20.548
			C404.804,405.419,403.9,388.838,394.778,373.043z"/>
	</g>
</g>
<g>
	<g>
		<path d="M181.222,312.397l2.449,9.199c1.749,6.528,8.721,10.573,15.377,8.875c3.226-0.879,5.922-2.953,7.629-5.854
			c1.647-2.901,2.099-6.272,1.246-9.523l-10.325-38.494c-1.749-6.502-8.721-10.479-15.352-8.849l-38.528,10.325
			c-3.251,0.896-5.922,3.004-7.552,5.828c-1.673,2.901-2.125,6.272-1.271,9.498c1.724,6.579,8.747,10.598,15.377,8.9l9.224-2.475
			l-42.274,73.199c-9.122,15.804-10.027,32.375-2.5,45.423c7.552,13.073,22.349,20.548,40.602,20.548h50.935
			c-2.833-8.149-2.842-16.956-0.017-25.096h-50.918c-9.199,0-15.898-2.85-18.876-8.004c-2.978-5.154-2.074-12.373,2.526-20.326
			L181.222,312.397z"/>
	</g>
</g>
<g>
	<g>
		<path d="M361.805,259.447c-1.672-2.876-4.378-4.949-7.603-5.828c-6.502-1.621-13.577,2.347-15.377,8.875l-2.449,9.225
			l-42.223-73.148c-9.148-15.821-23.023-24.875-38.101-24.875c-15.078,0-28.954,9.054-38.101,24.875l-25.617,44.373
			c8.627,1.638,16.179,5.982,21.777,12.467l25.591-44.288c9.199-15.898,23.501-15.898,32.7,0l42.249,73.148l-9.224-2.475
			c-6.622-1.673-13.602,2.347-15.377,8.875c-1.775,6.699,2.202,13.602,8.875,15.377l38.477,10.3c1.075,0.273,2.15,0.427,3.251,0.427
			c5.675,0,10.65-3.823,12.126-9.301l10.3-38.477C363.93,265.771,363.503,262.4,361.805,259.447z"/>
	</g>
</g>
<g>
	<g>
		<path d="M486.4,115.2H382.703C376.175,50.697,322.193,0,256,0S135.825,50.697,129.297,115.2H25.6C11.46,115.2,0,126.66,0,140.8
			v345.6C0,500.54,11.46,512,25.6,512h460.8c14.14,0,25.6-11.46,25.6-25.6V140.8C512,126.66,500.54,115.2,486.4,115.2z M371.2,179.2
			c7.057,0,12.8,5.743,12.8,12.8s-5.743,12.8-12.8,12.8s-12.8-5.743-12.8-12.8S364.143,179.2,371.2,179.2z M256,25.6
			c52.096,0,94.729,39.219,101.103,89.6H154.897C161.271,64.819,203.904,25.6,256,25.6z M140.8,179.2c7.057,0,12.8,5.743,12.8,12.8
			s-5.743,12.8-12.8,12.8S128,199.057,128,192S133.743,179.2,140.8,179.2z M486.4,486.4H25.6V140.8H128v15.147
			c-14.882,5.291-25.6,19.354-25.6,36.053c0,21.205,17.195,38.4,38.4,38.4c21.205,0,38.4-17.195,38.4-38.4
			c0-16.691-10.718-30.763-25.6-36.053V140.8h204.8v15.147c-14.882,5.291-25.6,19.354-25.6,36.053c0,21.205,17.195,38.4,38.4,38.4
			s38.4-17.195,38.4-38.4c0-16.691-10.718-30.763-25.6-36.053V140.8h102.4V486.4z"/>
	</g>
</g>
<g>
</g>
<g>
</g>
<g>
</g>
<g>
</g>
<g>
</g>
<g>
</g>
<g>
</g>
<g>
</g>
<g>
</g>
<g>
</g>
<g>
</g>
<g>
</g>
<g>
</g>
<g>
</g>
<g>
</g>
</svg>
