<?xml version="1.0" encoding="iso-8859-1"?>
<!-- Generator: Adobe Illustrator 19.0.0, SVG Export Plug-In . SVG Version: 6.00 Build 0)  -->
<svg version="1.1" id="Layer_1" xmlns="http://www.w3.org/2000/svg" xmlns:xlink="http://www.w3.org/1999/xlink" x="0px" y="0px"
	 viewBox="0 0 512 512" style="enable-background:new 0 0 512 512;" xml:space="preserve">
<g>
	<g>
		<path d="M437.019,74.981C388.668,26.628,324.38,0,256,0c-40.549,0-79.333,9.206-115.277,27.364
			c-27.136,13.708-51.88,32.447-72.63,54.829l4.41-26.46c0.753-4.517-2.299-8.791-6.817-9.544c-4.517-0.747-8.791,2.299-9.544,6.817
			l-8.847,53.08c-0.44,2.642,0.422,5.335,2.317,7.228c1.568,1.568,3.684,2.43,5.864,2.43c0.453,0,0.91-0.038,1.363-0.113
			l53.08-8.847c4.518-0.753,7.571-5.026,6.818-9.544c-0.753-4.518-5.032-7.569-9.544-6.817L78.66,95.177
			c19.73-21.705,43.464-39.834,69.542-53.009c33.603-16.973,69.872-25.58,107.798-25.58c63.949,0,124.071,24.903,169.291,70.122
			c45.219,45.22,70.122,105.341,70.122,169.291c0,38.695-9.443,77.13-27.307,111.149c-2.13,4.055-0.568,9.069,3.487,11.199
			c1.231,0.646,2.549,0.952,3.848,0.952c2.984,0,5.866-1.615,7.349-4.44C501.899,338.473,512,297.371,512,256
			C512,187.62,485.372,123.332,437.019,74.981z"/>
	</g>
</g>
<g>
	<g>
		<path d="M462.388,398.685c-1.893-1.893-4.587-2.755-7.227-2.316l-53.08,8.847c-4.518,0.753-7.571,5.026-6.818,9.544
			c0.753,4.518,5.029,7.565,9.544,6.817l28.533-4.755c-45.389,50.134-109.12,78.589-177.341,78.589
			c-63.949,0-124.071-24.903-169.291-70.122C41.491,380.071,16.587,319.949,16.587,256c0-38.695,9.443-77.13,27.307-111.149
			c2.13-4.055,0.568-9.069-3.487-11.199c-4.055-2.131-9.07-0.57-11.199,3.487C10.101,173.527,0,214.629,0,256
			c0,68.38,26.628,132.668,74.981,181.019S187.62,512,256,512c72.085,0,139.485-29.705,187.896-82.133l-4.4,26.399
			c-0.753,4.517,2.299,8.791,6.817,9.544c0.461,0.076,0.921,0.114,1.373,0.114c3.981,0,7.494-2.875,8.171-6.931l8.847-53.08
			C465.145,403.271,464.282,400.579,462.388,398.685z"/>
	</g>
</g>
<g>
	<g>
		<path d="M347.949,227.391c-2.315-3.898-6.403-6.226-10.936-6.226h-60.091l39.898-103.736c0.981-2.549,0.642-5.419-0.905-7.671
			c-1.547-2.253-4.104-3.598-6.836-3.598h-88.466c-3.887,0-7.253,2.699-8.096,6.495l-34.191,153.857
			c-0.841,3.785,0.068,7.691,2.494,10.716c2.426,3.024,6.042,4.76,9.92,4.76h55.933l-16.604,141.131
			c-0.464,3.946,1.935,7.667,5.72,8.872c0.832,0.265,1.68,0.391,2.516,0.391c2.969,0,5.797-1.602,7.281-4.324l102.591-188.084
			C350.348,235.992,350.263,231.289,347.949,227.391z M251.552,382.483l12.685-107.821c0.276-2.352-0.466-4.711-2.039-6.48
			s-3.83-2.782-6.198-2.782h-60.434l31.701-142.652h69.737l-39.898,103.736c-0.981,2.55-0.643,5.42,0.905,7.672
			s4.104,3.598,6.836,3.598h65.649L251.552,382.483z"/>
	</g>
</g>
<g>
</g>
<g>
</g>
<g>
</g>
<g>
</g>
<g>
</g>
<g>
</g>
<g>
</g>
<g>
</g>
<g>
</g>
<g>
</g>
<g>
</g>
<g>
</g>
<g>
</g>
<g>
</g>
<g>
</g>
</svg>
