<?xml version="1.0" encoding="iso-8859-1"?>
<!-- Generator: Adobe Illustrator 19.0.0, SVG Export Plug-In . SVG Version: 6.00 Build 0)  -->
<svg version="1.1" id="Layer_1" xmlns="http://www.w3.org/2000/svg" xmlns:xlink="http://www.w3.org/1999/xlink" x="0px" y="0px"
	 viewBox="0 0 512 512" style="enable-background:new 0 0 512 512;" xml:space="preserve">
<g>
	<g>
		<path d="M357.209,157.769c0-12.051-2.127-23.613-6.008-34.341l27.159-15.68l-17.86-30.934l-27.212,15.711
			c-14.922-17.65-35.759-30.122-59.427-34.356V26.791H238.14v31.377c-23.667,4.234-44.505,16.707-59.427,34.354l-27.212-15.71
			l-17.86,30.934l27.159,15.68c-3.882,10.728-6.008,22.29-6.008,34.341c0,12.051,2.127,23.613,6.008,34.341l-27.159,15.68
			l17.86,30.934l27.212-15.711c14.922,17.649,35.759,30.121,59.427,34.354v31.378h35.721v-31.377
			c23.667-4.234,44.505-16.707,59.427-34.354l27.212,15.711l17.86-30.934l-27.159-15.68
			C355.083,181.381,357.209,169.82,357.209,157.769z M256,223.256c-36.11,0-65.488-29.378-65.488-65.488S219.89,92.279,256,92.279
			s65.488,29.378,65.488,65.488S292.11,223.256,256,223.256z"/>
	</g>
</g>
<g>
	<g>
		<path d="M226.233,425.674v-38.786c0-23.853-9.287-46.278-26.151-63.141l-47.631-47.633c-10.317-10.319-24.07-15.89-38.625-15.689
			c-2.249,0.031-4.47,0.214-6.661,0.514v-67.452c0-26.195-19.944-53.56-55.075-53.56C23.356,139.928,0,165.075,0,194.231v136.362
			c0,23.853,9.289,46.28,26.156,63.146l45.286,45.286v46.184h35.721v-23.814h95.256v23.814h35.721v-59.535H226.233z
			 M190.512,425.674h-81.905l-57.193-57.193c-10.12-10.12-15.693-23.576-15.693-37.888V194.231c0-9.992,7.778-18.596,17.346-18.596
			c11.032,0,18.375,8.525,18.375,17.853v88.75c-15.321,20.948-13.27,51.151,5.757,70.177l44.213,44.213l25.258-25.258
			l-44.213-44.214c-7.066-7.066-7.65-18.649-0.883-25.415c8.81-8.81,20.117-5.869,25.617-0.369l47.633,47.633
			c10.116,10.119,15.689,23.573,15.689,37.884V425.674z"/>
	</g>
</g>
<g>
	<g>
		<path d="M459.912,139.928c-35.13,0-55.075,27.365-55.075,53.56v67.453c-2.191-0.3-4.412-0.485-6.661-0.514
			c-14.555-0.2-28.308,5.371-38.625,15.689l-47.631,47.633c-16.865,16.864-26.152,39.287-26.152,63.14v38.786H273.86v59.535h35.721
			v-23.814h95.256v23.814h35.721v-46.184l45.286-45.286C502.711,376.872,512,354.447,512,330.594V194.231
			C512,165.075,488.644,139.928,459.912,139.928z M476.279,330.594c0,14.312-5.574,27.768-15.693,37.888l-57.193,57.193h-81.905
			v-38.786c0-14.312,5.573-27.766,15.689-37.883l47.633-47.633c5.5-5.5,16.807-8.441,25.617,0.369
			c6.767,6.767,6.182,18.35-0.883,25.415l-44.213,44.214l25.258,25.258l44.213-44.213c19.027-19.026,21.078-49.229,5.757-70.177
			v-88.751c0-9.327,7.343-17.853,18.375-17.853c9.568,0,17.346,8.604,17.346,18.596V330.594z"/>
	</g>
</g>
<g>
</g>
<g>
</g>
<g>
</g>
<g>
</g>
<g>
</g>
<g>
</g>
<g>
</g>
<g>
</g>
<g>
</g>
<g>
</g>
<g>
</g>
<g>
</g>
<g>
</g>
<g>
</g>
<g>
</g>
</svg>
