<?xml version="1.0" encoding="utf-8"?>
<!-- Uploaded to SVGRepo https://www.svgrepo.com -->
<svg version="1.1" id="Layer_1" xmlns="http://www.w3.org/2000/svg" xmlns:xlink="http://www.w3.org/1999/xlink" x="0px" y="0px"
	 width="256px" height="256px" viewBox="0 0 256 256" enable-background="new 0 0 256 256" xml:space="preserve">
<path d="M42.484,236.397v-85.968c-11.644,18.479-21.063,30.425-23.971,28.746c-3.43-1.98,5.019-21.268,18.797-45.976
	c-0.636-2.195-0.543-4.592,0.377-6.81c-13.563-24.396-21.832-43.362-18.433-45.325c3.429-1.98,15.904,14.973,30.408,39.248
	c0.927,0.227,1.839,0.58,2.708,1.082c1.218,0.703,2.236,1.617,3.038,2.669c27.895,0.455,48.444,2.775,48.444,6.7
	c0,3.959-20.925,6.287-49.209,6.71c-0.71,0.738-1.512,1.355-2.382,1.844v94.004c23.886-7.021,49.33-10.82,75.739-10.82
	c0.019,0,0.037,0,0.056,0V85.474c2.047,0.888,4.3,1.387,6.67,1.387c6.331,0,11.852-3.52,14.72-8.702
	c18.02,32.692,28.834,57.827,24.226,60.486c-3.981,2.299-16.737-13.77-32.581-38.788v122.957c21.262,1.016,41.818,4.49,61.343,10.12
	v-70.79c-0.835,0.381-1.789,0.81-2.219,0.979c-16.743,6.588-29.32,10.151-30.332,7.747c-1.081-2.565,11.869-9.791,30.094-17.784
	c0.609-1.446,1.651-2.597,2.923-3.357c0.008-0.005,0.014-0.012,0.022-0.017c2.758-19.49,6.186-33.699,8.926-33.355
	c2.766,0.348,2.544,15.229,0.343,35.064c0.938,1.185,1.483,2.653,1.54,4.188c15.458,12.105,26.012,22.148,24.345,24.346
	c-1.55,2.045-13.612-4.872-28.039-15.198v70.49c15.396,4.949,30.106,11.251,43.962,18.75H2
	C14.809,247.067,28.349,241.16,42.484,236.397z M121.072,60.267c-37.599,0.72-65.036,3.926-65.036,9.273
	c0,5.314,27.109,8.514,64.361,9.26c-1.567-2.554-2.487-5.546-2.487-8.755C117.91,66.396,119.091,63.026,121.072,60.267z
	 M150.132,63.326c18.224-32.993,29.208-58.431,24.57-61.108c-4.597-2.655-20.897,19.178-40.146,51.019
	c0.057-0.001,0.112-0.009,0.17-0.009C141.61,53.229,147.534,57.391,150.132,63.326z M145.636,70.045
	c0-6.016-4.894-10.91-10.91-10.91s-10.91,4.894-10.91,10.91s4.894,10.91,10.91,10.91S145.636,76.061,145.636,70.045z"/>
</svg>
