<?xml version="1.0" ?><svg width="512px" height="512px" viewBox="0 0 512 512" xmlns="http://www.w3.org/2000/svg"><g id="Renewable_energy"><path d="M305.19,153.77a10.46,10.46,0,0,0-9.78-14.19h-68a10.48,10.48,0,0,0-10.24,8.29L187.8,286.15A10.46,10.46,0,0,0,198,298.79H242.4a10.47,10.47,0,0,1,10.28,12.45l-11,57c-2,10.41,12.09,15.64,17.36,6.45L329,252.79a10.47,10.47,0,0,0-9.08-15.68H288.7a10.47,10.47,0,0,1-9.79-14.19Z"/><path d="M404.15,404.18A210.8,210.8,0,0,0,450,180.41C407.9,72.21,285.61,18.43,177.4,60.54l6.53,16.78c99-38.51,210.79,10.66,249.3,109.62a192.77,192.77,0,0,1-42,204.68l-12.8-12.47a9.51,9.51,0,0,0-16.15,6.94l.48,33.89a9.51,9.51,0,0,0,9.62,9.37l33.89-.4a9.51,9.51,0,0,0,6.52-16.32Z"/><path d="M181.85,431a192.44,192.44,0,0,1-60-311l11.34,11a9.51,9.51,0,0,0,16.15-6.94l-.48-33.89a9.49,9.49,0,0,0-9.62-9.37l-33.89.4A9.51,9.51,0,0,0,98.8,97.58l10.13,9.87A210.53,210.53,0,0,0,335.69,451.07l-6.52-16.77A191.29,191.29,0,0,1,181.85,431Z"/></g></svg>